<?xml version="1.0" standalone="no"?>
<!DOCTYPE svg PUBLIC "-//W3C//DTD SVG 20010904//EN"
 "http://www.w3.org/TR/2001/REC-SVG-20010904/DTD/svg10.dtd">
<svg version="1.0" xmlns="http://www.w3.org/2000/svg"
 width="16.000000pt" height="16.000000pt" viewBox="0 0 16.000000 16.000000"
 preserveAspectRatio="xMidYMid meet">

<g transform="translate(0.000000,16.000000) scale(0.100000,-0.100000)"
fill="#000000" stroke="none">
<path d="M0 80 l0 -70 80 0 80 0 0 70 0 70 -80 0 -80 0 0 -70z m150 50 c0 -6
-29 -10 -70 -10 -91 0 -91 14 0 18 42 1 70 -2 70 -8z m0 -65 l0 -45 -70 0 -70
0 0 45 0 45 70 0 70 0 0 -45z"/>
<path d="M30 87 c0 -13 7 -17 30 -15 17 1 30 8 30 15 0 6 -9 11 -20 10 -11 -1
-20 -6 -20 -12 0 -5 -5 -3 -10 5 -8 13 -10 12 -10 -3z"/>
<path d="M100 87 c0 -10 8 -17 18 -17 9 0 13 4 7 8 -5 4 -13 11 -17 16 -5 5
-8 2 -8 -7z"/>
<path d="M30 50 c-13 -8 -13 -10 0 -14 25 -9 105 -2 103 9 -3 13 -84 17 -103
5z"/>
</g>
</svg>
